<?xml version="1.0" ?><!DOCTYPE svg  PUBLIC '-//W3C//DTD SVG 1.1//EN'  'http://www.w3.org/Graphics/SVG/1.1/DTD/svg11.dtd'><svg height="43.3492mm" style="shape-rendering:geometricPrecision; text-rendering:geometricPrecision; image-rendering:optimizeQuality; fill-rule:evenodd; clip-rule:evenodd" version="1.1" viewBox="0 0 4335 4335" width="43.3492mm" xml:space="preserve" xmlns="http://www.w3.org/2000/svg" xmlns:xlink="http://www.w3.org/1999/xlink"><defs><style type="text/css">
   <![CDATA[
    .fil1 {fill:#FEFEFE}
    .fil0 {fill:#3A5BA2}
   ]]>
  </style></defs><g id="Layer_x0020_1"><g id="_680044480"><path class="fil0" d="M732 18l2867 0c385,0 700,315 700,700l0 2867c0,385 -315,700 -700,700l-2867 0c-385,0 -700,-315 -700,-700l0 -2867c0,-385 315,-700 700,-700z"/><path class="fil1" d="M2793 1775l0 502 -376 0 0 1129 -502 0 0 -1129 -376 0 0 -502 345 0 0 -439c0,0 31,-439 470,-439 439,0 439,0 439,0l0 502 -220 0c0,0 -157,-31 -157,188 0,220 0,188 0,188l376 0z"/></g></g></svg>