<?xml version="1.0" ?><!DOCTYPE svg  PUBLIC '-//W3C//DTD SVG 1.1//EN'  'http://www.w3.org/Graphics/SVG/1.1/DTD/svg11.dtd'><svg height="43.3492mm" style="shape-rendering:geometricPrecision; text-rendering:geometricPrecision; image-rendering:optimizeQuality; fill-rule:evenodd; clip-rule:evenodd" version="1.1" viewBox="0 0 4335 4335" width="43.3492mm" xml:space="preserve" xmlns="http://www.w3.org/2000/svg" xmlns:xlink="http://www.w3.org/1999/xlink"><defs><style type="text/css">
   <![CDATA[
    .fil0 {fill:#E1584B}
    .fil1 {fill:#FFFEFE}
   ]]>
  </style></defs><g id="Layer_x0020_1"><g id="_679343640"><path class="fil0" d="M734 17l2873 0c386,0 701,316 701,701l0 2873c0,386 -316,701 -701,701l-2873 0c-386,0 -701,-316 -701,-701l0 -2873c0,-386 316,-701 701,-701z"/><g><path class="fil1" d="M1783 2448c72,-6 140,-18 184,13 102,72 286,191 303,320 18,140 -69,225 -141,271 -261,165 -842,42 -839,-260 2,-254 248,-324 494,-344zm-117 -1267c371,-69 642,693 219,791 -408,95 -640,-713 -219,-791zm106 874c-22,79 -59,121 16,242 13,21 38,45 44,62 -286,12 -694,78 -796,369 -41,116 -12,226 47,308 225,309 1126,314 1352,-155 195,-405 -311,-607 -382,-705 -118,-162 196,-241 286,-446 84,-191 -11,-452 -160,-543 37,-4 82,-2 120,-1 85,1 70,-11 173,-75 20,-12 56,-38 73,-46 -52,-11 -652,-5 -734,1 -108,8 -213,28 -305,65 -107,42 -159,82 -221,149 -180,193 -227,811 487,777z"/><path class="fil1" d="M2862 2045l-356 0 -1 112 353 0 4 326 114 0 1 -325 344 0 0 -112 -344 0c-3,-57 -8,-281 3,-328l-119 -1 0 329z"/></g></g></g></svg>